<?xml version="1.0" encoding="UTF-8" standalone="no"?>
<svg width="94px" height="32px" viewBox="0 0 94 32" version="1.1" xmlns="http://www.w3.org/2000/svg" xmlns:xlink="http://www.w3.org/1999/xlink">
    <!-- Generator: Sketch 46.2 (44496) - http://www.bohemiancoding.com/sketch -->
    <title>key copy</title>
    <desc>Created with Sketch.</desc>
    <defs>
        <linearGradient x1="50%" y1="0%" x2="50%" y2="100%" id="linearGradient-1">
            <stop stop-color="#FFD129" offset="0%"></stop>
            <stop stop-color="#FFB02B" offset="100%"></stop>
        </linearGradient>
    </defs>
    <g id="App-Icons-by-aarhcreative---Enjoy!" stroke="none" stroke-width="1" fill="none" fill-rule="evenodd">
        <g id="App-Icons-Free" transform="translate(-1819.000000, -552.000000)">
            <g id="key-copy" transform="translate(1819.000000, 552.000000)">
                <rect id="Rectangle-6" fill="#FFBC4B" x="60" y="20" width="5" height="12" rx="2.5"></rect>
                <rect id="Rectangle-6" fill="#FFBC4B" x="81" y="20" width="5" height="12" rx="2.5"></rect>
                <rect id="Rectangle-6" fill="#FFBC4B" x="71" y="20" width="5" height="12" rx="2.5"></rect>
                <rect id="Rectangle-5" fill="url(#linearGradient-1)" x="24" y="10" width="70" height="12" rx="6"></rect>
                <path d="M15.5,32 C6.93958638,32 0,24.836556 0,16 C0,7.163444 6.93958638,0 15.5,0 C24.0604136,0 31,7.163444 31,16 C31,24.836556 24.0604136,32 15.5,32 Z M15.5,24.4210526 C19.6704579,24.4210526 23.0512821,20.8393306 23.0512821,16.4210526 C23.0512821,12.0027746 19.6704579,8.42105263 15.5,8.42105263 C11.3295421,8.42105263 7.94871795,12.0027746 7.94871795,16.4210526 C7.94871795,20.8393306 11.3295421,24.4210526 15.5,24.4210526 Z" id="Combined-Shape" fill="url(#linearGradient-1)"></path>
            </g>
        </g>
    </g>
</svg>