<?xml version="1.0" encoding="UTF-8" standalone="no"?>
<svg width="78px" height="78px" viewBox="0 0 78 78" version="1.1" xmlns="http://www.w3.org/2000/svg" xmlns:xlink="http://www.w3.org/1999/xlink">
    <!-- Generator: Sketch 46.2 (44496) - http://www.bohemiancoding.com/sketch -->
    <title>TIM@1x</title>
    <desc>Created with Sketch.</desc>
    <defs></defs>
    <g id="App-Icons-by-aarhcreative---Enjoy!" stroke="none" stroke-width="1" fill="none" fill-rule="evenodd">
        <g id="App-Icons-Free" transform="translate(-1546.000000, -312.000000)">
            <g id="TIM" transform="translate(1546.000000, 312.000000)">
                <g id="Icon-Shape">
                    <path d="M50.7623494,0.282608696 C58.5361563,0.282608696 62.4220918,0.282608696 66.6067965,1.6054529 C71.1754486,3.26836486 74.7735849,6.86650109 76.4364968,11.4351533 C77.759341,15.6192127 77.759341,19.5064388 77.759341,27.2796004 L77.759341,50.7203996 C77.759341,58.4942065 77.759341,62.380142 76.4364968,66.5648467 C74.7735849,71.1334989 71.1754486,74.7316351 66.6067965,76.3939018 C62.4220918,77.7173913 58.5361563,77.7173913 50.7623494,77.7173913 L27.3215501,77.7173913 C19.5477432,77.7173913 15.6611624,77.7173913 11.477103,76.3939018 C6.90845082,74.7316351 3.31031458,71.1334989 1.64740263,66.5648467 C0.324558424,62.380142 0.324558424,58.4942065 0.324558424,50.7203996 L0.324558424,27.2796004 C0.324558424,19.5064388 0.324558424,15.6192127 1.64740263,11.4351533 C3.31031458,6.86650109 6.90845082,3.26836486 11.477103,1.6054529 C15.6611624,0.282608696 19.5477432,0.282608696 27.3215501,0.282608696 L50.7623494,0.282608696 Z" id="Orange-Icon" fill="#F39C7D"></path>
                    <path d="M50.7623494,0.282608696 C58.5361563,0.282608696 62.4220918,0.282608696 66.6067965,1.49441123 C71.1754486,3.01773569 74.7735849,6.31383859 76.4364968,10.4989908 C77.759341,14.3318335 77.759341,17.8927596 77.759341,25.0134295 L77.759341,46.4865705 C77.759341,53.6078315 77.759341,57.1675754 76.4364968,61.0010092 C74.7735849,65.1861614 71.1754486,68.4822643 66.6067965,70.0049976 C62.4220918,71.2173913 58.5361563,71.2173913 50.7623494,71.2173913 L27.3215501,71.2173913 C19.5477432,71.2173913 15.6611624,71.2173913 11.477103,70.0049976 C6.90845082,68.4822643 3.31031458,65.1861614 1.64740263,61.0010092 C0.324558424,57.1675754 0.324558424,53.6078315 0.324558424,46.4865705 L0.324558424,25.0134295 C0.324558424,17.8927596 0.324558424,14.3318335 1.64740263,10.4989908 C3.31031458,6.31383859 6.90845082,3.01773569 11.477103,1.49441123 C15.6611624,0.282608696 19.5477432,0.282608696 27.3215501,0.282608696 L50.7623494,0.282608696 Z" id="Orange-Icon" fill="#F8C09D"></path>
                    <g id="eyes" transform="translate(16.391304, 24.869565)" fill-rule="nonzero">
                        <g id="eye_01">
                            <ellipse id="Oval-3" fill="#5C0000" cx="5.42372368" cy="7.91304348" rx="5.42372368" ry="7.91304348"></ellipse>
                            <ellipse id="Oval-4" fill="#F8C09D" cx="5.42372368" cy="15.2608696" rx="5.42372368" ry="4.52173913"></ellipse>
                        </g>
                        <g id="eye_01" transform="translate(33.818513, 0.000000)">
                            <ellipse id="Oval-3" fill="#5B0000" cx="5.42372368" cy="7.91304348" rx="5.42372368" ry="7.91304348"></ellipse>
                            <ellipse id="Oval-4" fill="#F8C09D" cx="5.42372368" cy="15.2608696" rx="5.42372368" ry="4.52173913"></ellipse>
                        </g>
                    </g>
                </g>
            </g>
        </g>
    </g>
</svg>