<?xml version="1.0" encoding="UTF-8" standalone="no"?>
<svg width="78px" height="93px" viewBox="0 0 78 93" version="1.1" xmlns="http://www.w3.org/2000/svg" xmlns:xlink="http://www.w3.org/1999/xlink">
    <!-- Generator: Sketch 46.2 (44496) - http://www.bohemiancoding.com/sketch -->
    <title>Timona</title>
    <desc>Created with Sketch.</desc>
    <defs></defs>
    <g id="App-Icons-by-aarhcreative---Enjoy!" stroke="none" stroke-width="1" fill="none" fill-rule="evenodd">
        <g id="App-Icons-Free" transform="translate(-1831.000000, -1183.000000)">
            <g id="Timona" transform="translate(1831.000000, 1183.000000)">
                <g id="Icon-Shape" transform="translate(0.000000, 15.000000)">
                    <path d="M50.7623494,0.282608696 C58.5361563,0.282608696 62.4220918,0.282608696 66.6067965,1.6054529 C71.1754486,3.26836486 74.7735849,6.86650109 76.4364968,11.4351533 C77.759341,15.6192127 77.759341,19.5064388 77.759341,27.2796004 L77.759341,50.7203996 C77.759341,58.4942065 77.759341,62.380142 76.4364968,66.5648467 C74.7735849,71.1334989 71.1754486,74.7316351 66.6067965,76.3939018 C62.4220918,77.7173913 58.5361563,77.7173913 50.7623494,77.7173913 L27.3215501,77.7173913 C19.5477432,77.7173913 15.6611624,77.7173913 11.477103,76.3939018 C6.90845082,74.7316351 3.31031458,71.1334989 1.64740263,66.5648467 C0.324558424,62.380142 0.324558424,58.4942065 0.324558424,50.7203996 L0.324558424,27.2796004 C0.324558424,19.5064388 0.324558424,15.6192127 1.64740263,11.4351533 C3.31031458,6.86650109 6.90845082,3.26836486 11.477103,1.6054529 C15.6611624,0.282608696 19.5477432,0.282608696 27.3215501,0.282608696 L50.7623494,0.282608696 Z" id="Orange-Icon" fill="#C57676"></path>
                    <path d="M50.7623494,0.282608696 C58.5361563,0.282608696 62.4220918,0.282608696 66.6067965,1.49441123 C71.1754486,3.01773569 74.7735849,6.31383859 76.4364968,10.4989908 C77.759341,14.3318335 77.759341,17.8927596 77.759341,25.0134295 L77.759341,46.4865705 C77.759341,53.6078315 77.759341,57.1675754 76.4364968,61.0010092 C74.7735849,65.1861614 71.1754486,68.4822643 66.6067965,70.0049976 C62.4220918,71.2173913 58.5361563,71.2173913 50.7623494,71.2173913 L27.3215501,71.2173913 C19.5477432,71.2173913 15.6611624,71.2173913 11.477103,70.0049976 C6.90845082,68.4822643 3.31031458,65.1861614 1.64740263,61.0010092 C0.324558424,57.1675754 0.324558424,53.6078315 0.324558424,46.4865705 L0.324558424,25.0134295 C0.324558424,17.8927596 0.324558424,14.3318335 1.64740263,10.4989908 C3.31031458,6.31383859 6.90845082,3.01773569 11.477103,1.49441123 C15.6611624,0.282608696 19.5477432,0.282608696 27.3215501,0.282608696 L50.7623494,0.282608696 Z" id="Orange-Icon" fill="#F8AAAA"></path>
                    <g id="eyes" transform="translate(16.391304, 24.869565)" fill-rule="nonzero">
                        <g id="eye_01">
                            <ellipse id="Oval-3" fill="#5C0000" cx="5.42372368" cy="7.91304348" rx="5.42372368" ry="7.91304348"></ellipse>
                            <ellipse id="Oval-4" fill="#F8AAAA" cx="5.42372368" cy="15.2608696" rx="5.42372368" ry="4.52173913"></ellipse>
                            <ellipse id="Oval-4-Copy" fill="#F47B7B" opacity="0.447586287" cx="5.42372368" cy="19.7826087" rx="5.42372368" ry="4.52173913"></ellipse>
                        </g>
                        <g id="eye_01" transform="translate(33.818513, 0.000000)">
                            <ellipse id="Oval-3" fill="#5B0000" cx="5.42372368" cy="7.91304348" rx="5.42372368" ry="7.91304348"></ellipse>
                            <ellipse id="Oval-4-Copy-2" fill="#F8AAAA" cx="5.42372368" cy="15.826087" rx="5.42372368" ry="4.52173913"></ellipse>
                            <ellipse id="Oval-4-Copy-3" fill="#F47B7B" opacity="0.447586287" cx="5.42372368" cy="20.3478261" rx="5.42372368" ry="4.52173913"></ellipse>
                        </g>
                    </g>
                </g>
                <g id="masna" transform="translate(39.000000, 14.500000) scale(1, -1) translate(-39.000000, -14.500000) ">
                    <path d="M11.6800913,0.0936733543 C19.6719946,0.0936733543 27.6638979,0.0936733543 35.6558012,0.0936733543 C35.6558012,0.0936733543 35.6558012,0.0936733543 35.6558012,0.0936733543 L35.6558012,11.7737647 C35.6558012,11.7737647 35.6558012,11.7737647 35.6558012,11.7737647 C27.6040243,14.3560223 19.5522475,16.9382799 11.5004707,19.5205375 L11.5004707,19.5205375 C6.85730656,21.0096306 1.88612982,18.4527509 0.39703666,13.8095868 C0.185161755,13.1489364 0.0518968041,12.4656148 0,11.7737647 C0,11.7737647 0,11.7737647 0,11.7737647 C0,11.7737647 0,11.7737647 0,11.7737647 L0,11.7737647 C-7.89987357e-16,5.32302836 5.229355,0.0936733543 11.6800913,0.0936733543 Z" id="Rectangle-17-Copy" fill="#BF283B" transform="translate(17.827901, 10.019179) scale(1, -1) translate(-17.827901, -10.019179) "></path>
                    <path d="M11.6800913,9.04301075 C19.6719946,9.04301075 27.6638979,9.04301075 35.6558012,9.04301075 C35.6558012,9.04301075 35.6558012,9.04301075 35.6558012,9.04301075 L35.6558012,20.7231021 C35.6558012,20.7231021 35.6558012,20.7231021 35.6558012,20.7231021 C27.6040243,23.3053597 19.5522475,25.8876173 11.5004707,28.4698749 L11.5004707,28.4698749 C6.85730656,29.958968 1.88612982,27.4020883 0.39703666,22.7589242 C0.185161755,22.0982738 0.0518968041,21.4149522 1.77635684e-15,20.7231021 C0,20.7231021 0,20.7231021 0,20.7231021 C0,20.7231021 0,20.7231021 0,20.7231021 L0,20.7231021 C-7.89987357e-16,14.2723658 5.229355,9.04301075 11.6800913,9.04301075 Z" id="Rectangle-17" fill="#ED384E"></path>
                    <path d="M53.4590728,0.0936733543 C61.450976,0.0936733543 69.4428793,0.0936733543 77.4347826,0.0936733543 C77.4347826,0.0936733543 77.4347826,0.0936733543 77.4347826,0.0936733543 L77.4347826,11.7737647 C77.4347826,11.7737647 77.4347826,11.7737647 77.4347826,11.7737647 C69.3830058,14.3560223 61.3312289,16.9382799 53.2794521,19.5205375 L53.2794521,19.5205375 C48.636288,21.0096306 43.6651113,18.4527509 42.1760181,13.8095868 C41.9641432,13.1489364 41.8308782,12.4656148 41.7789814,11.7737647 C41.7789814,11.7737647 41.7789814,11.7737647 41.7789814,11.7737647 C41.7789814,11.7737647 41.7789814,11.7737647 41.7789814,11.7737647 L41.7789814,11.7737647 C41.7789814,5.32302836 47.0083364,0.0936733543 53.4590728,0.0936733543 Z" id="Rectangle-17-Copy-2" fill="#BF283B" transform="translate(59.606882, 10.019179) scale(-1, -1) translate(-59.606882, -10.019179) "></path>
                    <path d="M54.0242901,9.04301075 C62.0161934,9.04301075 70.0080967,9.04301075 78,9.04301075 C78,9.04301075 78,9.04301075 78,9.04301075 L78,20.7231021 C78,20.7231021 78,20.7231021 78,20.7231021 C69.9482232,23.3053597 61.8964463,25.8876173 53.8446695,28.4698749 L53.8446695,28.4698749 C49.2015054,29.958968 44.2303287,27.4020883 42.7412355,22.7589242 C42.5293606,22.0982738 42.3960956,21.4149522 42.3441988,20.7231021 C42.3441988,20.7231021 42.3441988,20.7231021 42.3441988,20.7231021 C42.3441988,20.7231021 42.3441988,20.7231021 42.3441988,20.7231021 L42.3441988,20.7231021 C42.3441988,14.2723658 47.5735538,9.04301075 54.0242901,9.04301075 Z" id="Rectangle-17" fill="#ED384E" transform="translate(60.172099, 18.968517) scale(-1, 1) translate(-60.172099, -18.968517) "></path>
                    <rect id="Rectangle-18" fill="#DB283D" x="31.0869565" y="5.59649123" width="16.9565217" height="17.8070175" rx="8.47826087"></rect>
                </g>
            </g>
        </g>
    </g>
</svg>