<?xml version="1.0" encoding="UTF-8" standalone="no"?>
<svg width="114px" height="170px" viewBox="0 0 114 170" version="1.1" xmlns="http://www.w3.org/2000/svg" xmlns:xlink="http://www.w3.org/1999/xlink">
    <!-- Generator: Sketch 46.2 (44496) - http://www.bohemiancoding.com/sketch -->
    <title>trap</title>
    <desc>Created with Sketch.</desc>
    <defs>
        <linearGradient x1="50%" y1="0%" x2="50%" y2="100%" id="linearGradient-1">
            <stop stop-color="#FFD129" offset="0%"></stop>
            <stop stop-color="#FFBE2A" offset="53.2484394%"></stop>
            <stop stop-color="#FFB02B" offset="100%"></stop>
        </linearGradient>
        <linearGradient x1="50%" y1="0%" x2="50%" y2="100%" id="linearGradient-2">
            <stop stop-color="#FFD129" offset="0%"></stop>
            <stop stop-color="#FFB02B" offset="100%"></stop>
        </linearGradient>
    </defs>
    <g id="App-Icons-by-aarhcreative---Enjoy!" stroke="none" stroke-width="1" fill="none" fill-rule="evenodd">
        <g id="App-Icons-Free" transform="translate(-1529.000000, -911.000000)">
            <g id="trap" transform="translate(1526.000000, 911.000000)">
                <g id="glass_body" transform="translate(6.000000, 73.000000)" fill="#FFFFFF">
                    <rect id="cage" opacity="0.367947964" x="0" y="0" width="100" height="97" rx="9"></rect>
                    <rect id="Rectangle-9" opacity="0.740605735" x="13.5483871" y="25.6953642" width="9.03225806" height="64.2384106" rx="4.51612903"></rect>
                    <rect id="Rectangle-9" opacity="0.660323552" x="13.5483871" y="4.49668874" width="9.03225806" height="13.4900662" rx="4.51612903"></rect>
                </g>
                <rect id="lid" fill="#743535" x="6" y="59" width="102" height="14" rx="7"></rect>
                <ellipse id="Oval-12" fill="#820433" cx="60.5" cy="32.5" rx="11.5" ry="18.5"></ellipse>
                <g id="chain">
                    <path d="M107.645833,85.9780225 C104.446223,85.9780225 101.852426,82.3443276 101.852426,77.8619379 C101.852426,73.3795481 104.446223,69.7458533 107.645833,69.7458533 C110.845444,69.7458533 113.43924,73.3795481 113.43924,77.8619379 C113.43924,82.3443276 110.845444,85.9780225 107.645833,85.9780225 Z M107.645833,81.6078231 C109.122577,81.6078231 110.319713,79.9307331 110.319713,77.8619379 C110.319713,75.7931426 109.122577,74.1160527 107.645833,74.1160527 C106.16909,74.1160527 104.971953,75.7931426 104.971953,77.8619379 C104.971953,79.9307331 106.16909,81.6078231 107.645833,81.6078231 Z" id="Combined-Shape" fill="url(#linearGradient-1)" transform="translate(107.645833, 77.861938) rotate(570.000000) translate(-107.645833, -77.861938) "></path>
                    <path d="M61.4365137,62.8201277 C58.2369032,62.8201277 55.6431065,59.1864329 55.6431065,54.7040431 C55.6431065,50.2216534 58.2369032,46.5879585 61.4365137,46.5879585 C64.6361242,46.5879585 67.2299209,50.2216534 67.2299209,54.7040431 C67.2299209,59.1864329 64.6361242,62.8201277 61.4365137,62.8201277 Z M61.4365137,58.4499283 C62.913257,58.4499283 64.110394,56.7728384 64.110394,54.7040431 C64.110394,52.6352478 62.913257,50.9581579 61.4365137,50.9581579 C59.9597704,50.9581579 58.7626334,52.6352478 58.7626334,54.7040431 C58.7626334,56.7728384 59.9597704,58.4499283 61.4365137,58.4499283 Z" id="Combined-Shape" fill="url(#linearGradient-1)" transform="translate(61.436514, 54.704043) rotate(570.000000) translate(-61.436514, -54.704043) "></path>
                    <path d="M109.431025,72.2151172 C106.231415,72.2151172 103.637618,68.5814224 103.637618,64.0990326 C103.637618,59.6166429 106.231415,55.982948 109.431025,55.982948 C112.630636,55.982948 115.224433,59.6166429 115.224433,64.0990326 C115.224433,68.5814224 112.630636,72.2151172 109.431025,72.2151172 Z M109.431025,67.8449178 C110.907769,67.8449178 112.104906,66.1678279 112.104906,64.0990326 C112.104906,62.0302374 110.907769,60.3531474 109.431025,60.3531474 C107.954282,60.3531474 106.757145,62.0302374 106.757145,64.0990326 C106.757145,66.1678279 107.954282,67.8449178 109.431025,67.8449178 Z" id="Combined-Shape" fill="url(#linearGradient-1)" transform="translate(109.431025, 64.099033) rotate(-36.000000) translate(-109.431025, -64.099033) "></path>
                    <path d="M96.7510382,68.4694005 C93.5514278,68.4694005 90.957631,64.8357057 90.957631,60.3533159 C90.957631,55.8709262 93.5514278,52.2372313 96.7510382,52.2372313 C99.9506487,52.2372313 102.544445,55.8709262 102.544445,60.3533159 C102.544445,64.8357057 99.9506487,68.4694005 96.7510382,68.4694005 Z M96.7510382,64.0992011 C98.2277815,64.0992011 99.4249185,62.4221112 99.4249185,60.3533159 C99.4249185,58.2845207 98.2277815,56.6074307 96.7510382,56.6074307 C95.2742949,56.6074307 94.077158,58.2845207 94.077158,60.3533159 C94.077158,62.4221112 95.2742949,64.0992011 96.7510382,64.0992011 Z" id="Combined-Shape" fill="url(#linearGradient-1)" transform="translate(96.751038, 60.353316) rotate(269.000000) translate(-96.751038, -60.353316) "></path>
                    <path d="M86.1237684,76.1172549 C82.924158,76.1172549 80.3303612,72.4835601 80.3303612,68.0011703 C80.3303612,63.5187805 82.924158,59.8850857 86.1237684,59.8850857 C89.3233789,59.8850857 91.9171757,63.5187805 91.9171757,68.0011703 C91.9171757,72.4835601 89.3233789,76.1172549 86.1237684,76.1172549 Z M86.1237684,71.7470555 C87.6005117,71.7470555 88.7976487,70.0699656 88.7976487,68.0011703 C88.7976487,65.932375 87.6005117,64.2552851 86.1237684,64.2552851 C84.6470252,64.2552851 83.4498882,65.932375 83.4498882,68.0011703 C83.4498882,70.0699656 84.6470252,71.7470555 86.1237684,71.7470555 Z" id="Combined-Shape" fill="url(#linearGradient-1)" transform="translate(86.123768, 68.001170) rotate(570.000000) translate(-86.123768, -68.001170) "></path>
                    <path d="M74.0041006,75.5358894 C70.8044901,75.5358894 68.2106933,71.9021945 68.2106933,67.4198048 C68.2106933,62.937415 70.8044901,59.3037202 74.0041006,59.3037202 C77.203711,59.3037202 79.7975078,62.937415 79.7975078,67.4198048 C79.7975078,71.9021945 77.203711,75.5358894 74.0041006,75.5358894 Z M74.0041006,71.16569 C75.4808438,71.16569 76.6779808,69.4886 76.6779808,67.4198048 C76.6779808,65.3510095 75.4808438,63.6739196 74.0041006,63.6739196 C72.5273573,63.6739196 71.3302203,65.3510095 71.3302203,67.4198048 C71.3302203,69.4886 72.5273573,71.16569 74.0041006,71.16569 Z" id="Combined-Shape" fill="url(#linearGradient-1)" transform="translate(74.004101, 67.419805) rotate(649.000000) translate(-74.004101, -67.419805) "></path>
                    <path d="M61.0645025,71.4401009 C57.8648921,71.4401009 55.2710953,67.8064061 55.2710953,63.3240163 C55.2710953,58.8416266 57.8648921,55.2079317 61.0645025,55.2079317 C64.264113,55.2079317 66.8579098,58.8416266 66.8579098,63.3240163 C66.8579098,67.8064061 64.264113,71.4401009 61.0645025,71.4401009 Z M61.0645025,67.0699015 C62.5412458,67.0699015 63.7383828,65.3928116 63.7383828,63.3240163 C63.7383828,61.2552211 62.5412458,59.5781311 61.0645025,59.5781311 C59.5877592,59.5781311 58.3906223,61.2552211 58.3906223,63.3240163 C58.3906223,65.3928116 59.5877592,67.0699015 61.0645025,67.0699015 Z" id="Combined-Shape" fill="url(#linearGradient-1)" transform="translate(61.064503, 63.324016) rotate(627.000000) translate(-61.064503, -63.324016) "></path>
                    <path d="M46.9498985,69.7754017 C43.750288,69.7754017 41.1564913,66.1417068 41.1564913,61.6593171 C41.1564913,57.1769273 43.750288,53.5432324 46.9498985,53.5432324 C50.149509,53.5432324 52.7433057,57.1769273 52.7433057,61.6593171 C52.7433057,66.1417068 50.149509,69.7754017 46.9498985,69.7754017 Z M46.9498985,65.4052023 C48.4266418,65.4052023 49.6237788,63.7281123 49.6237788,61.6593171 C49.6237788,59.5905218 48.4266418,57.9134319 46.9498985,57.9134319 C45.4731552,57.9134319 44.2760182,59.5905218 44.2760182,61.6593171 C44.2760182,63.7281123 45.4731552,65.4052023 46.9498985,65.4052023 Z" id="Combined-Shape" fill="url(#linearGradient-1)" transform="translate(46.949899, 61.659317) rotate(627.000000) translate(-46.949899, -61.659317) "></path>
                    <path d="M32.5685307,70.0999657 C29.3689203,70.0999657 26.7751235,66.4662708 26.7751235,61.9838811 C26.7751235,57.5014913 29.3689203,53.8677965 32.5685307,53.8677965 C35.7681412,53.8677965 38.361938,57.5014913 38.361938,61.9838811 C38.361938,66.4662708 35.7681412,70.0999657 32.5685307,70.0999657 Z M32.5685307,65.7297663 C34.045274,65.7297663 35.242411,64.0526763 35.242411,61.9838811 C35.242411,59.9150858 34.045274,58.2379959 32.5685307,58.2379959 C31.0917874,58.2379959 29.8946505,59.9150858 29.8946505,61.9838811 C29.8946505,64.0526763 31.0917874,65.7297663 32.5685307,65.7297663 Z" id="Combined-Shape" fill="url(#linearGradient-1)" transform="translate(32.568531, 61.983881) rotate(627.000000) translate(-32.568531, -61.983881) "></path>
                    <path d="M19.4337904,73.6471362 C16.2341799,73.6471362 13.6403832,70.0134414 13.6403832,65.5310516 C13.6403832,61.0486619 16.2341799,57.414967 19.4337904,57.414967 C22.6334008,57.414967 25.2271976,61.0486619 25.2271976,65.5310516 C25.2271976,70.0134414 22.6334008,73.6471362 19.4337904,73.6471362 Z M19.4337904,69.2769368 C20.9105337,69.2769368 22.1076706,67.5998469 22.1076706,65.5310516 C22.1076706,63.4622563 20.9105337,61.7851664 19.4337904,61.7851664 C17.9570471,61.7851664 16.7599101,63.4622563 16.7599101,65.5310516 C16.7599101,67.5998469 17.9570471,69.2769368 19.4337904,69.2769368 Z" id="Combined-Shape" fill="url(#linearGradient-1)" transform="translate(19.433790, 65.531052) rotate(627.000000) translate(-19.433790, -65.531052) "></path>
                    <path d="M9.65695147,84.1923256 C6.45734101,84.1923256 3.86354425,80.5586308 3.86354425,76.076241 C3.86354425,71.5938513 6.45734101,67.9601564 9.65695147,67.9601564 C12.8565619,67.9601564 15.4503587,71.5938513 15.4503587,76.076241 C15.4503587,80.5586308 12.8565619,84.1923256 9.65695147,84.1923256 Z M9.65695147,79.8221262 C11.1336948,79.8221262 12.3308317,78.1450363 12.3308317,76.076241 C12.3308317,74.0074457 11.1336948,72.3303558 9.65695147,72.3303558 C8.18020818,72.3303558 6.98307122,74.0074457 6.98307122,76.076241 C6.98307122,78.1450363 8.18020818,79.8221262 9.65695147,79.8221262 Z" id="Combined-Shape" fill="url(#linearGradient-1)" transform="translate(9.656951, 76.076241) rotate(572.000000) translate(-9.656951, -76.076241) "></path>
                    <path d="M57.87996,31.5987066 L53.8404036,43.0107925 L68.6936785,43.0107925 L64.6541221,31.5987066 C67.0526194,30.2072843 68.6936785,27.3842101 68.6936785,24.1280056 C68.6936785,19.4930388 65.3686596,15.7356558 61.267041,15.7356558 C57.1654224,15.7356558 53.8404036,19.4930388 53.8404036,24.1280056 C53.8404036,27.3842101 55.4814627,30.2072843 57.87996,31.5987066 Z M61.267041,53.5012297 C49.5481308,53.5012297 40.0480769,41.5245715 40.0480769,26.7506149 C40.0480769,11.9766582 49.5481308,0 61.267041,0 C72.9859513,0 82.4860052,11.9766582 82.4860052,26.7506149 C82.4860052,41.5245715 72.9859513,53.5012297 61.267041,53.5012297 Z" id="Combined-Shape" fill="url(#linearGradient-2)"></path>
                </g>
            </g>
        </g>
    </g>
</svg>