<?xml version="1.0" encoding="UTF-8" standalone="no"?>
<svg width="138px" height="138px" viewBox="0 0 138 138" version="1.1" xmlns="http://www.w3.org/2000/svg" xmlns:xlink="http://www.w3.org/1999/xlink">
    <!-- Generator: Sketch 43.1 (39012) - http://www.bohemiancoding.com/sketch -->
    <title>Void_06@1x</title>
    <desc>Created with Sketch.</desc>
    <defs></defs>
    <g id="App-Icons-by-aarhcreative---Enjoy!" stroke="none" stroke-width="1" fill="none" fill-rule="evenodd">
        <g id="App-Icons-Free" transform="translate(-482.000000, -182.000000)">
            <g id="Icons" transform="translate(29.000000, 24.000000)">
                <g id="Void_06" transform="translate(453.000000, 158.000000)">
                    <g id="Icon-Shape">
                        <path d="M89.8103104,0.5 C103.563969,0.5 110.439085,0.5 117.842794,2.84041667 C125.925794,5.78249167 132.291727,12.148425 135.233802,20.231425 C137.574219,27.6339917 137.574219,34.5113917 137.574219,48.2639083 L137.574219,89.7360917 C137.574219,103.48975 137.574219,110.364867 135.233802,117.768575 C132.291727,125.851575 125.925794,132.217508 117.842794,135.158442 C110.439085,137.5 103.563969,137.5 89.8103104,137.5 L48.3381271,137.5 C34.5844688,137.5 27.7082104,137.5 20.3056438,135.158442 C12.2226438,132.217508 5.85671042,125.851575 2.91463542,117.768575 C0.57421875,110.364867 0.57421875,103.48975 0.57421875,89.7360917 L0.57421875,48.2639083 C0.57421875,34.5113917 0.57421875,27.6339917 2.91463542,20.231425 C5.85671042,12.148425 12.2226437,5.78249167 20.3056438,2.84041667 C27.7082104,0.5 34.5844687,0.5 48.3381271,0.5 L89.8103104,0.5 Z" id="Orange-Icon" fill="#C67676"></path>
                        <path d="M89.8103104,0.5 C103.563969,0.5 110.439085,0.5 117.842794,2.64395833 C125.925794,5.33907083 132.291727,11.1706375 135.233802,18.5751375 C137.574219,25.3563208 137.574219,31.6564208 137.574219,44.2545292 L137.574219,82.2454708 C137.574219,94.844625 137.574219,101.142633 135.233802,107.924863 C132.291727,115.329363 125.925794,121.160929 117.842794,123.854996 C110.439085,126 103.563969,126 89.8103104,126 L48.3381271,126 C34.5844688,126 27.7082104,126 20.3056438,123.854996 C12.2226438,121.160929 5.85671042,115.329363 2.91463542,107.924863 C0.57421875,101.142633 0.57421875,94.844625 0.57421875,82.2454708 L0.57421875,44.2545292 C0.57421875,31.6564208 0.57421875,25.3563208 2.91463542,18.5751375 C5.85671042,11.1706375 12.2226437,5.33907083 20.3056438,2.64395833 C27.7082104,0.5 34.5844687,0.5 48.3381271,0.5 L89.8103104,0.5 Z" id="Orange-Icon" fill="#F8AAAA"></path>
                        <g id="eyes" transform="translate(29.000000, 44.000000)" fill-rule="nonzero">
                            <g id="eye_01">
                                <ellipse id="Oval-3" fill="#5C0000" cx="9.59581882" cy="14" rx="9.59581882" ry="14"></ellipse>
                                <ellipse id="Oval-4" fill="#F7AAAA" cx="9.59581882" cy="27" rx="9.59581882" ry="8"></ellipse>
                            </g>
                            <g id="eye_01" transform="translate(59.832753, 0.000000)">
                                <ellipse id="Oval-3" fill="#5B0000" cx="9.59581882" cy="14" rx="9.59581882" ry="14"></ellipse>
                                <ellipse id="Oval-4" fill="#F7AAAA" cx="9.59581882" cy="27" rx="9.59581882" ry="8"></ellipse>
                            </g>
                        </g>
                    </g>
                </g>
            </g>
        </g>
    </g>
</svg>