<?xml version="1.0" encoding="utf-8"?>
<!-- Generator: Adobe Illustrator 19.2.0, SVG Export Plug-In . SVG Version: 6.00 Build 0)  -->
<svg version="1.1" id="Layer_1" xmlns="http://www.w3.org/2000/svg" xmlns:xlink="http://www.w3.org/1999/xlink" x="0px" y="0px"
	 viewBox="0 0 1920 1080" style="enable-background:new 0 0 1920 1080;" xml:space="preserve">
<style type="text/css">
	.st0{fill:#F8AAAA;}
	.st1{opacity:0.2;fill:#F8AAAA;}
	.st2{fill:#C57676;}
	.st3{fill:#5C0000;}
</style>
<path class="st0" d="M799.8,436.3h-70.5c-16.5,0-30,13.5-30,30v60.1c0,16.5,13.5,30,30,30h70.5c16.5,0,30-13.5,30-30v-60.1
	C829.8,449.8,816.3,436.3,799.8,436.3z"/>
<path class="st1" d="M655.5,431.3H585c-16.5,0-30,13.5-30,30v60.1c0,16.5,13.5,30,30,30h70.5c16.5,0,30-13.5,30-30v-60.1
	C685.5,444.8,672,431.3,655.5,431.3z"/>
<path class="st2" d="M801.5,559.9h-74c-17.6,0-32-14.4-32-32v9.2c0,17.6,14.4,32,32,32h74c17.6,0,32-14.4,32-32v-9.2
	C833.5,545.5,819.1,559.9,801.5,559.9z"/>
<path class="st0" d="M801.5,432.9h-74c-17.6,0-32,14.4-32,32v9.2v53.8c0,17.6,14.4,32,32,32h74c17.6,0,32-14.4,32-32v-53.8v-9.2
	C833.5,447.3,819.1,432.9,801.5,432.9z M829.8,526.5c0,16.5-13.5,30-30,30h-70.5c-16.5,0-30-13.5-30-30v-60.1c0-16.5,13.5-30,30-30
	h70.5c16.5,0,30,13.5,30,30V526.5z"/>
<g>
	<ellipse class="st3" cx="794.5" cy="478.6" rx="10" ry="15.5"/>
	<ellipse class="st3" cx="734.5" cy="478.6" rx="10" ry="15.5"/>
</g>
</svg>
